<?xml version="1.0" standalone="no"?>
<!DOCTYPE svg PUBLIC "-//W3C//DTD SVG 20010904//EN"
 "http://www.w3.org/TR/2001/REC-SVG-20010904/DTD/svg10.dtd">
<svg version="1.0" xmlns="http://www.w3.org/2000/svg"
 width="237.120000pt" height="60.000000pt" viewBox="0 0 237.120000 60.000000"
 preserveAspectRatio="xMidYMid meet">
<metadata>
Created by potrace 1.13, written by Peter Selinger 2001-2015
</metadata>
<g transform="translate(0.000000,60.000000) scale(0.024000,-0.024000)"
fill="#000000" stroke="none">
<path d="M0 1250 l0 -1250 4940 0 4940 0 0 1250 0 1250 -4940 0 -4940 0 0
-1250z m7822 620 c-3 -22 -10 -30 -26 -30 -41 -1 -61 -29 -57 -82 2 -24 29
-48 56 -48 16 0 24 -7 27 -25 6 -30 2 -35 -33 -35 -46 0 -78 21 -99 65 -42 87
11 185 100 185 35 0 36 -1 32 -30z m168 0 c0 -25 -4 -30 -24 -30 -34 0 -56
-25 -56 -65 0 -40 22 -65 56 -65 20 0 24 -5 24 -30 0 -27 -3 -30 -31 -30 -91
0 -145 106 -97 191 23 42 48 57 96 58 29 1 32 -2 32 -29z m180 0 c0 -24 -4
-30 -21 -30 -25 0 -59 -17 -59 -30 0 -6 18 -10 40 -10 36 0 40 -2 40 -25 0
-22 -4 -25 -40 -25 -22 0 -40 -4 -40 -10 0 -13 34 -30 59 -30 17 0 21 -6 21
-30 0 -25 -4 -30 -24 -30 -92 0 -147 87 -111 176 18 46 56 73 103 74 29 0 32
-3 32 -30z m-858 -40 c0 -3 2 -111 3 -241 2 -209 5 -242 21 -275 45 -93 195
-66 208 37 5 42 -15 88 -47 109 -12 8 -47 14 -77 15 l-55 0 0 69 c0 69 0 70
30 78 72 20 185 -13 244 -73 135 -134 71 -379 -112 -430 -62 -17 -157 -13
-220 11 -66 25 -130 89 -146 146 -7 23 -11 145 -11 299 l0 261 80 0 c44 -1 81
-3 82 -6z m-5755 -28 c53 -27 93 -80 100 -129 l5 -38 -76 0 c-70 0 -76 2 -76
21 0 57 -113 82 -152 34 -10 -12 -18 -29 -18 -37 0 -24 49 -61 103 -79 113
-37 179 -82 202 -138 42 -100 -5 -200 -109 -231 -102 -30 -226 -10 -292 47
-41 36 -50 52 -63 107 l-9 42 76 -3 76 -3 8 -32 c19 -74 151 -85 176 -14 9 25
7 34 -9 56 -11 14 -25 25 -30 25 -21 0 -194 81 -217 102 -64 59 -74 154 -23
218 61 76 230 103 328 52z m2316 3 c54 -25 80 -67 85 -137 6 -76 -25 -138
-113 -233 -36 -38 -75 -82 -86 -97 l-20 -28 121 0 121 0 -2 -55 -2 -55 -217 0
-216 0 1 45 c2 48 4 53 102 155 165 173 188 216 158 292 -4 9 -20 20 -36 23
-39 9 -76 -16 -87 -58 l-8 -32 -69 0 c-79 0 -84 7 -53 76 26 59 44 78 103 106
41 20 61 23 115 20 36 -2 83 -12 103 -22z m2448 18 c6 -51 2 -156 -6 -159 -5
-1 -39 -5 -74 -8 -122 -10 -176 -73 -169 -197 6 -112 56 -161 171 -167 40 -3
74 -8 77 -12 4 -7 4 -72 1 -151 -1 -23 -152 -18 -222 7 -73 26 -141 91 -181
172 -31 62 -33 73 -33 167 1 81 5 109 23 148 43 95 111 159 203 191 45 15 208
22 210 9z m-4258 -20 c3 -10 51 -142 107 -293 56 -151 105 -283 107 -292 5
-16 -3 -18 -74 -18 l-79 0 -17 54 c-10 30 -23 56 -30 58 -6 3 -52 4 -102 3
l-90 -1 -18 -57 -18 -57 -81 0 c-60 0 -79 3 -75 13 2 6 53 146 113 309 l109
298 71 0 c60 0 73 -3 77 -17z m522 -179 c34 -105 65 -199 69 -210 8 -19 13 -4
120 331 l23 70 99 3 99 3 0 -308 0 -308 -75 0 -75 0 1 80 c0 44 3 139 6 210
l6 130 -19 -50 c-15 -42 -37 -105 -124 -362 -3 -8 -23 -13 -55 -13 -27 0 -50
1 -50 3 0 8 -140 411 -144 415 -3 2 -3 -26 0 -64 3 -38 6 -133 8 -211 l3 -143
-73 0 c-49 0 -73 4 -76 13 -3 10 -2 551 1 595 1 10 24 12 98 10 l97 -3 61
-191z m650 -57 c0 -157 4 -247 10 -248 6 -1 64 -2 130 -3 l120 -1 0 -57 1 -58
-206 0 -205 0 2 293 c0 160 2 300 2 310 1 16 10 18 74 15 l72 -3 0 -248z
m4662 -109 c2 -178 7 -198 57 -198 54 0 58 12 59 190 1 88 4 161 7 161 3 1 38
2 78 4 l72 2 1 -61 c3 -257 0 -308 -20 -350 -20 -39 -73 -86 -99 -86 -9 0 -12
-31 -12 -108 l0 -107 -82 0 -83 0 0 103 c0 102 -7 121 -40 122 -20 0 -65 48
-81 86 -13 31 -17 74 -17 210 0 94 3 175 6 181 3 5 39 9 79 8 l73 -1 2 -156z
m-1206 103 l47 -22 36 20 c91 51 212 33 290 -44 101 -99 94 -255 -16 -349 -23
-20 -60 -41 -82 -47 -56 -15 -144 -7 -191 17 l-40 21 -47 -24 c-56 -28 -145
-33 -200 -10 -52 22 -109 77 -131 127 -24 54 -25 140 -3 193 22 50 88 112 139
131 55 20 140 14 198 -13z m-5091 -546 c24 -75 41 -114 45 -104 3 9 21 63 38
120 l33 104 57 3 57 3 0 -181 0 -181 -42 3 -43 3 2 120 3 120 -41 -122 c-39
-118 -42 -123 -69 -123 -31 0 -32 2 -76 138 -15 45 -29 82 -33 82 -3 0 -4 -39
-1 -87 7 -130 7 -133 -43 -133 l-42 0 0 180 0 181 59 -3 58 -3 38 -120z m530
91 l0 -33 -67 -1 c-38 0 -74 0 -80 -1 -8 -1 -13 -15 -13 -36 l0 -35 71 0 70 0
-3 -32 -3 -31 -65 -1 -65 -1 -3 -45 -3 -45 81 1 80 2 0 -34 0 -34 -120 0
c-107 0 -120 2 -121 18 -1 22 -1 301 0 325 1 15 14 17 121 17 l120 0 0 -34z
m316 7 c-2 -16 -4 -31 -5 -34 0 -3 -22 -6 -48 -5 l-48 1 -3 -148 -3 -147 -42
0 -43 0 0 128 c2 177 4 169 -55 165 l-49 -3 0 35 0 35 149 0 150 0 -3 -27z
m260 -152 c35 -96 64 -176 64 -178 0 -2 -21 -3 -47 -1 -39 2 -49 7 -51 23 -6
32 -18 38 -74 39 -50 1 -54 -1 -64 -29 -9 -27 -16 -30 -57 -33 l-46 -3 23 68
c28 78 83 234 97 270 8 21 14 24 50 21 l41 -3 64 -174z m305 163 c33 -16 48
-35 59 -73 l9 -31 -42 0 c-34 0 -44 4 -52 22 -6 12 -23 25 -39 29 -39 11 -76
-26 -77 -78 -3 -95 8 -129 44 -142 36 -13 72 2 75 32 3 24 0 27 -27 27 -28 0
-31 3 -31 30 l0 30 74 0 73 0 -1 -72 -1 -73 -45 -23 c-56 -29 -142 -26 -188 7
-90 64 -78 266 18 313 40 20 112 21 151 2z m359 -17 l0 -33 -67 1 c-89 1 -93
-1 -91 -41 l1 -34 69 0 68 0 0 -33 0 -32 -67 0 -68 0 -3 -45 -3 -45 81 2 80 1
0 -34 0 -34 -120 0 c-66 0 -120 3 -121 8 0 4 -1 85 -2 180 l-2 172 123 0 122
0 0 -33z m127 21 c6 -7 28 -46 49 -85 70 -131 71 -131 71 -12 l-1 104 44 0 43
0 0 -175 0 -175 -44 0 -43 0 -61 105 -60 105 -3 -107 -3 -108 -39 0 c-22 0
-40 3 -41 8 0 4 -2 85 -3 180 l-1 172 41 0 c23 0 46 -6 51 -12z m-2099 -116
c2 -25 -3 -33 -29 -46 -17 -8 -47 -18 -65 -22 -43 -8 -38 -13 34 -39 55 -20
57 -22 59 -58 0 -20 0 -37 -1 -37 -2 0 -50 20 -107 44 -102 42 -104 44 -104
76 0 32 2 34 100 75 55 23 102 41 105 39 3 -1 7 -16 8 -32z m2505 -20 c65 -26
67 -28 67 -62 l0 -35 -105 -42 c-58 -22 -105 -37 -106 -32 -1 5 -1 18 -1 29 0
35 1 38 25 44 13 3 41 13 63 22 l39 17 -64 22 c-54 18 -65 25 -66 46 -4 44 3
50 43 33 21 -9 67 -28 105 -42z m1317 -137 c0 -9 -9 -15 -24 -15 -13 0 -36
-10 -51 -22 -23 -18 -26 -26 -22 -56 7 -40 31 -61 70 -62 17 0 27 -5 27 -15 0
-20 -42 -20 -80 0 -33 17 -54 70 -44 109 3 14 20 37 36 51 33 28 88 34 88 10z
m377 -60 c1 -77 12 -105 42 -105 44 1 64 48 38 85 -11 14 -21 17 -47 12 -28
-6 -31 -5 -20 8 33 40 100 0 100 -59 0 -62 -69 -88 -114 -43 -20 20 -23 35
-25 100 -2 59 1 77 11 77 10 0 14 -20 15 -75z m493 60 c0 -9 -9 -15 -24 -15
-36 0 -76 -37 -76 -70 0 -37 34 -70 72 -70 18 0 28 -5 28 -15 0 -20 -42 -20
-79 0 -28 14 -51 58 -51 97 0 32 63 88 99 88 21 0 31 -5 31 -15z m1583 0 c1
-5 -9 -12 -22 -13 -28 -4 -71 -30 -71 -43 0 -5 22 -9 50 -9 40 0 48 -3 44 -15
-4 -10 -20 -15 -50 -15 -32 0 -44 -4 -44 -14 0 -21 40 -46 72 -46 20 0 26 -4
22 -15 -8 -19 -37 -19 -74 0 -70 36 -67 133 5 174 23 13 65 11 68 -4z m-541
-10 c0 -5 -5 -11 -11 -13 -6 -2 -11 4 -11 13 0 9 5 15 11 13 6 -2 11 -8 11
-13z m1340 0 c0 -5 -5 -11 -11 -13 -6 -2 -11 4 -11 13 0 9 5 15 11 13 6 -2 11
-8 11 -13z m-1416 -35 c13 0 24 -4 24 -10 0 -5 -11 -10 -26 -10 -24 0 -25 -2
-22 -47 3 -41 6 -48 26 -51 29 -4 28 -22 -2 -22 -38 0 -51 25 -48 98 3 67 14
105 20 65 3 -17 10 -23 28 -23z m850 0 c13 0 24 -4 24 -10 0 -5 -11 -10 -24
-10 -21 0 -25 -5 -24 -32 0 -50 8 -68 29 -68 10 0 19 -4 19 -10 0 -16 -46 -12
-60 5 -15 18 -18 135 -4 156 7 11 10 9 12 -8 3 -17 10 -23 28 -23z m-2546 -20
c27 -27 26 -74 -2 -100 -47 -43 -118 -9 -118 57 0 27 41 63 72 63 15 0 37 -9
48 -20z m145 14 c10 -4 23 -21 30 -38 24 -57 -25 -108 -88 -92 -25 6 -47 43
-47 79 0 37 62 67 105 51z m256 -34 c1 -22 3 -44 4 -50 1 -5 3 -14 4 -20 2
-14 38 -12 48 3 4 6 8 32 8 56 1 66 25 66 25 0 0 -41 -5 -58 -22 -77 -13 -13
-23 -33 -23 -44 0 -12 -6 -23 -12 -25 -9 -3 -13 6 -13 25 0 19 -8 35 -21 43
-29 20 -36 129 -8 129 5 0 10 -18 10 -40z m452 28 c9 -7 21 -27 26 -45 19 -65
-65 -109 -116 -61 -29 27 -29 65 -1 95 24 25 65 30 91 11z m167 -8 c43 -43 11
-120 -48 -120 -73 0 -98 107 -32 133 30 11 60 7 80 -13z m169 2 c31 -25 31
-79 1 -104 -24 -20 -71 -21 -77 -2 -2 7 8 9 26 6 25 -3 33 0 41 20 16 35 -2
78 -34 78 -38 0 -49 -23 -48 -105 1 -57 -2 -75 -13 -75 -23 0 -18 144 7 175
23 30 66 33 97 7z m161 0 l23 -19 -48 -26 c-56 -32 -85 -24 -31 8 36 22 38 35
6 35 -23 0 -48 -31 -45 -53 8 -46 72 -67 82 -27 6 23 33 27 33 6 0 -20 -39
-46 -69 -46 -53 0 -90 70 -58 111 25 33 74 37 107 11z m110 11 c0 -3 -10 -13
-21 -22 -17 -13 -21 -28 -21 -64 1 -32 -3 -47 -12 -47 -9 0 -13 19 -12 69 l1
69 32 0 c18 0 33 -2 33 -5z m130 -13 c15 -15 20 -33 20 -70 0 -27 -4 -50 -10
-50 -11 0 -11 0 -15 56 -3 52 -10 64 -39 64 -26 0 -49 -22 -53 -50 -4 -24 32
-54 57 -47 13 3 20 0 20 -9 0 -21 -53 -17 -78 6 -24 23 -29 67 -9 92 25 33 78
37 107 8z m181 13 c7 -50 2 -133 -8 -133 -7 0 -13 25 -15 70 -2 51 0 70 10 70
6 0 12 -3 13 -7z m79 -35 c20 -64 27 -65 47 -9 10 28 23 51 30 51 17 0 17 0
-13 -75 -14 -36 -32 -65 -39 -65 -11 0 -42 59 -51 95 -1 6 -5 18 -9 28 -5 11
-2 17 7 17 9 0 21 -18 28 -42z m220 24 l23 -19 -48 -26 c-57 -32 -84 -24 -29
9 32 20 35 24 20 30 -40 15 -75 -38 -50 -75 19 -27 58 -27 76 0 8 12 20 20 28
17 22 -7 -34 -58 -63 -58 -33 0 -77 37 -77 64 0 62 72 97 120 58z m373 0 c25
-27 25 -144 1 -119 -4 3 -7 26 -8 51 -2 53 -15 71 -45 61 -18 -5 -21 -14 -21
-61 0 -40 -4 -54 -14 -54 -22 0 -13 110 10 127 25 18 58 16 77 -5z m257 0 l23
-18 -34 -20 c-47 -28 -67 -35 -73 -25 -3 4 10 16 29 27 35 19 37 34 5 34 -11
0 -27 -11 -36 -25 -15 -23 -15 -27 0 -50 21 -32 58 -33 79 -2 16 24 33 18 24
-8 -9 -22 -51 -39 -81 -31 -60 15 -76 79 -30 115 33 26 65 27 94 3z m108 -4
c-24 -17 -28 -27 -28 -69 0 -34 -4 -49 -13 -49 -10 0 -14 18 -14 69 l1 69 40
0 41 1 -27 -21z m140 6 c32 -22 31 -88 -2 -110 -28 -18 -67 -16 -74 5 -3 9 0
11 7 6 7 -4 23 -4 36 -1 48 12 40 96 -9 96 -37 0 -47 -22 -48 -104 -1 -53 -5
-76 -13 -76 -9 0 -13 23 -13 76 0 67 2 79 23 100 28 28 61 31 93 8z m112 9 c0
-3 -9 -12 -20 -21 -15 -13 -21 -30 -22 -64 0 -30 -5 -48 -13 -48 -8 0 -12 21
-11 69 l1 69 32 0 c18 0 33 -2 33 -5z m55 -60 c-1 -43 -5 -68 -13 -71 -9 -3
-12 16 -12 67 0 50 4 71 13 71 8 0 12 -20 12 -67z m155 57 c0 -5 -18 -10 -40
-10 -27 0 -40 -4 -40 -13 0 -8 18 -19 40 -26 31 -9 40 -17 40 -34 0 -13 -5
-28 -12 -35 -14 -14 -98 -16 -98 -2 0 6 18 10 39 10 56 0 59 16 6 39 -46 20
-58 44 -33 69 14 14 98 16 98 2z m140 -8 l23 -19 -48 -26 c-54 -30 -55 -31
-55 -17 0 6 13 18 30 29 30 18 30 31 0 31 -21 0 -45 -26 -45 -49 -1 -45 71
-72 82 -31 3 11 14 20 25 20 16 0 17 -3 8 -20 -34 -63 -140 -42 -140 28 0 59
73 92 120 54z m150 8 c0 -5 -18 -10 -40 -10 -50 0 -51 -15 -2 -37 39 -19 56
-58 30 -74 -18 -12 -98 -11 -98 1 0 6 18 10 39 10 56 0 59 16 6 39 -46 20 -58
44 -33 69 14 14 98 16 98 2z"/>
<path d="M1956 1550 c-15 -52 -30 -100 -33 -107 -4 -10 10 -13 61 -13 l66 0
-6 28 c-4 15 -19 63 -34 106 l-26 79 -28 -93z"/>
<path d="M6545 1469 c-44 -12 -83 -57 -90 -104 -12 -81 55 -149 138 -140 49 5
67 20 67 56 0 39 41 67 74 51 13 -6 32 -23 41 -39 41 -69 129 -90 193 -45 57
41 65 132 15 184 -35 37 -77 48 -128 34 -36 -11 -40 -15 -43 -49 -5 -62 -68
-85 -102 -36 -58 81 -102 104 -165 88z"/>
<path d="M2578 968 c-9 -29 -15 -54 -13 -56 2 -2 18 -2 37 0 l35 3 -15 53 c-8
28 -18 52 -21 52 -4 0 -14 -24 -23 -52z"/>
<path d="M5280 775 c-18 -22 -19 -48 -2 -67 43 -50 102 16 66 74 -8 13 -51 9
-64 -7z"/>
<path d="M5439 775 c-21 -21 -13 -72 12 -80 48 -16 82 27 58 71 -14 27 -47 31
-70 9z"/>
<path d="M6138 773 c-9 -10 -14 -26 -13 -36 11 -64 88 -62 88 3 0 48 -45 67
-75 33z"/>
<path d="M6294 765 c-15 -23 -15 -27 0 -50 35 -54 99 -12 76 50 -13 34 -54 34
-76 0z"/>
</g>
</svg>
