<?xml version="1.0" standalone="no"?>
<!DOCTYPE svg PUBLIC "-//W3C//DTD SVG 20010904//EN"
 "http://www.w3.org/TR/2001/REC-SVG-20010904/DTD/svg10.dtd">
<svg version="1.0" xmlns="http://www.w3.org/2000/svg"
 width="245.520000pt" height="60.000000pt" viewBox="0 0 245.520000 60.000000"
 preserveAspectRatio="xMidYMid meet">
<metadata>
Created by potrace 1.13, written by Peter Selinger 2001-2015
</metadata>
<g transform="translate(0.000000,60.000000) scale(0.024000,-0.024000)"
fill="#000000" stroke="none">
<path d="M0 1250 l0 -1250 5115 0 5115 0 0 1250 0 1250 -5115 0 -5115 0 0
-1250z m1597 472 c49 -26 87 -72 101 -124 12 -42 17 -40 -83 -40 -65 0 -65 0
-65 20 0 55 -114 79 -151 33 -11 -13 -19 -30 -19 -38 0 -24 48 -60 102 -78
163 -53 224 -117 216 -227 -7 -100 -73 -148 -211 -154 -91 -4 -161 17 -209 63
-37 35 -45 49 -57 102 l-9 42 76 -3 76 -3 8 -32 c11 -41 48 -61 107 -58 49 2
71 22 71 65 0 36 -22 53 -101 83 -36 14 -83 34 -105 45 -158 81 -142 262 29
318 60 20 172 12 224 -14z m2316 4 c54 -27 80 -68 85 -138 6 -78 -25 -139
-123 -243 -115 -122 -117 -115 24 -115 l120 0 0 -55 -1 -55 -214 0 c-118 0
-214 3 -215 8 -11 75 -7 81 96 190 166 173 200 238 155 295 -13 16 -31 27 -46
27 -32 0 -74 -42 -74 -74 0 -26 -1 -26 -72 -23 l-73 2 4 30 c4 37 33 94 57
116 11 9 37 26 59 37 51 26 161 25 218 -2z m-1810 -3 c3 -10 51 -142 107 -293
56 -151 105 -283 107 -292 5 -16 -3 -18 -74 -18 l-78 0 -20 57 -20 58 -100 0
-100 0 -18 -57 -18 -58 -81 0 c-44 0 -78 4 -76 9 2 5 53 144 113 310 l110 301
71 0 c60 0 73 -3 77 -17z m522 -179 c34 -105 65 -199 69 -210 6 -14 18 14 48
106 22 69 52 163 67 210 l27 85 100 3 99 3 0 -308 -1 -308 -74 0 -75 0 1 90
c0 50 3 144 6 210 7 139 11 144 -77 -115 l-63 -185 -49 -3 -50 -3 -26 73 c-14
40 -37 109 -52 153 -14 44 -29 87 -32 95 -3 8 -7 20 -9 25 -1 6 -9 28 -18 50
l-15 40 5 -65 c3 -36 6 -134 8 -217 l3 -153 -76 0 -76 0 2 307 c1 170 2 309 2
311 1 1 45 1 98 0 l97 -3 61 -191z m650 -56 c0 -159 4 -249 10 -250 5 0 57 -2
115 -3 58 -1 112 -3 121 -4 12 -1 15 -13 15 -53 l-1 -53 -205 0 -204 0 -1 295
c0 162 1 301 4 308 2 9 23 12 75 10 l71 -3 0 -247z m2350 -2 l-1 -134 38 26
c101 67 237 21 265 -91 3 -12 7 -111 8 -219 l2 -198 -84 0 -83 0 0 183 c0 211
-5 227 -68 227 -21 0 -47 -6 -58 -14 -18 -13 -19 -25 -19 -193 1 -98 -1 -184
-3 -190 -3 -9 -29 -13 -83 -13 l-79 0 0 375 0 375 83 0 83 0 -1 -134z m-378
70 c62 -31 107 -84 129 -149 23 -69 19 -74 -72 -73 l-77 1 -11 39 c-14 51 -50
77 -108 79 -106 3 -133 -43 -133 -228 0 -149 15 -198 69 -220 31 -13 97 -10
128 6 20 11 48 60 48 84 0 12 15 15 85 15 97 0 97 0 67 -82 -33 -90 -117 -151
-225 -163 -171 -20 -306 69 -338 224 -49 238 34 445 196 489 67 19 184 8 242
-22z m3818 -151 c35 -93 67 -181 73 -195 18 -44 122 -331 122 -336 0 -3 -41
-3 -92 -2 l-92 3 -20 62 -19 61 -117 0 -117 0 -19 -61 -20 -62 -93 -3 c-86 -3
-93 -1 -87 15 4 10 59 159 122 331 63 172 119 324 124 338 10 24 12 25 91 22
l82 -3 62 -170z m-1759 63 l-1 -63 43 -3 c43 -3 44 -4 44 -57 0 -65 1 -64 -41
-60 -48 5 -47 8 -45 -153 1 -136 3 -142 62 -142 l32 0 0 -60 0 -59 -36 -7
c-48 -9 -131 2 -160 21 -51 33 -59 58 -62 214 -4 197 -2 186 -37 186 -30 1
-30 1 -31 58 l0 57 33 0 33 0 0 65 0 65 84 0 84 0 -2 -62z m-981 -69 c51 -14
100 -51 122 -92 13 -26 17 -66 19 -209 1 -102 7 -185 13 -197 6 -11 11 -22 11
-25 0 -3 -38 -6 -84 -6 -75 0 -85 2 -91 19 -6 19 -7 18 -48 -5 -71 -41 -161
-28 -221 32 -36 36 -41 52 -38 127 3 84 78 135 214 145 l80 5 -5 39 c-3 22
-13 45 -23 53 -32 23 -94 1 -94 -34 0 -13 -13 -16 -80 -16 -49 0 -81 4 -84 11
-6 16 28 86 53 108 51 46 173 68 256 45z m589 -3 c90 -38 135 -138 130 -290
-3 -84 -41 -166 -97 -210 -34 -27 -46 -31 -102 -31 -50 0 -70 5 -94 23 l-31
23 0 -121 0 -121 -82 3 -83 3 0 360 0 360 78 3 c72 3 77 1 77 -18 0 -22 15
-27 26 -9 21 35 121 49 178 25z m893 -10 c80 -41 119 -110 126 -224 l5 -72
-41 -1 c-23 0 -97 0 -164 0 -68 1 -123 -1 -123 -5 0 -21 35 -73 56 -83 44 -20
107 -14 145 15 l34 25 37 -41 c20 -23 35 -47 32 -54 -7 -19 -85 -65 -129 -77
-63 -17 -155 -6 -214 26 -85 47 -126 117 -130 227 -6 141 65 248 184 279 45
12 147 4 182 -15z m509 -58 l1 -77 -31 1 c-63 2 -83 -2 -103 -22 -20 -18 -21
-30 -21 -172 0 -84 -1 -161 -1 -170 -1 -16 -12 -18 -81 -18 -76 0 -80 1 -81
23 -1 31 -1 446 0 480 1 27 1 27 76 27 59 0 75 -3 76 -15 1 -8 3 -19 4 -25 1
-5 3 -13 4 -17 1 -5 6 0 12 10 18 31 71 58 109 55 l35 -3 1 -77z m-6679 -388
c20 -65 40 -117 43 -114 3 3 21 56 40 117 l36 112 57 3 57 3 0 -181 0 -181
-42 3 -43 3 3 115 c2 63 1 112 -1 110 -3 -3 -21 -56 -42 -117 -35 -108 -38
-113 -65 -113 -24 0 -30 7 -47 53 -11 28 -28 80 -38 114 -10 34 -21 60 -24 58
-3 -2 -4 -36 -1 -77 3 -40 4 -90 2 -111 -3 -38 -3 -38 -44 -35 l-41 3 0 155
c1 85 1 165 2 178 1 20 6 22 56 22 l55 0 37 -120z m533 87 l0 -33 -67 -1 c-38
-1 -74 -2 -80 -2 -8 -1 -13 -15 -13 -36 l0 -35 70 0 70 0 0 -30 c0 -21 -5 -30
-17 -31 -10 -1 -36 -3 -58 -4 -22 -1 -46 -3 -53 -4 -9 -1 -12 -14 -10 -43 l3
-43 78 1 77 1 0 -33 0 -34 -120 0 c-89 0 -120 3 -121 13 0 6 -1 87 -2 180 l-2
167 123 0 122 0 0 -33z m317 1 c4 -30 2 -31 -62 -32 l-40 -1 -3 -147 -3 -148
-43 0 -43 0 0 133 c-1 72 -2 140 -2 149 -1 14 -9 16 -51 12 l-50 -4 0 35 0 36
147 -3 146 -3 4 -27z m259 -148 c35 -96 64 -176 64 -178 0 -2 -21 -2 -47 0
-43 3 -48 6 -55 33 -7 29 -9 30 -65 30 -55 0 -58 -1 -69 -30 -9 -27 -16 -30
-57 -33 l-46 -3 23 68 c28 78 83 234 97 270 8 21 14 24 50 21 l41 -3 64 -175z
m285 170 c43 -12 66 -36 79 -79 l9 -31 -44 0 c-34 0 -44 4 -48 20 -6 24 -44
40 -72 30 -29 -10 -46 -51 -46 -115 -1 -85 30 -118 99 -107 17 3 22 11 22 33
0 26 -4 29 -30 29 -27 0 -30 3 -30 30 l0 30 74 0 74 0 0 -69 c0 -77 -7 -90
-67 -110 -129 -43 -231 31 -231 169 0 133 88 204 211 170z m379 -24 l0 -34
-57 0 c-102 0 -99 2 -101 -37 l-3 -35 71 0 70 0 0 -30 c0 -32 3 -31 -90 -34
l-45 -1 0 -45 0 -44 78 0 77 0 0 -33 0 -34 -122 3 -121 3 -1 178 -1 177 123 0
122 0 0 -34z m155 -26 c18 -30 46 -80 63 -110 l30 -54 -1 112 -2 113 44 -3 44
-3 0 -175 1 -175 -45 -3 -44 -2 -62 112 -62 113 -1 -112 0 -113 -42 0 -43 0 0
180 0 181 44 -3 c43 -3 46 -6 76 -58z m-2129 -80 c-1 -24 -5 -27 -116 -66 -8
-3 13 -15 50 -28 55 -18 65 -26 67 -46 4 -50 -2 -51 -109 -6 -101 42 -103 44
-103 76 0 33 2 34 100 75 103 42 114 42 111 -5z m2473 5 l101 -40 0 -35 0 -35
-105 -42 c-79 -31 -105 -38 -106 -27 -5 58 -5 57 51 77 30 10 59 22 63 26 4 4
-20 16 -53 26 -33 10 -60 21 -61 24 -4 31 -3 71 2 69 3 -2 52 -21 108 -43z"/>
<path d="M1996 1469 c-15 -51 -30 -99 -33 -106 -4 -10 10 -13 62 -13 60 0 67
2 62 18 -3 9 -14 46 -25 82 -38 123 -35 123 -66 19z"/>
<path d="M8918 1365 c-8 -14 -68 -210 -68 -224 0 -7 24 -11 70 -11 46 0 70 4
70 12 0 6 -14 57 -31 112 -17 56 -32 105 -33 111 -2 6 -4 6 -8 0z"/>
<path d="M6190 1080 c-22 -22 -27 -69 -8 -88 17 -17 69 -15 96 4 17 12 22 25
22 60 l0 44 -45 0 c-32 0 -51 -6 -65 -20z"/>
<path d="M6742 1264 c-21 -14 -22 -23 -22 -129 0 -106 1 -115 22 -129 32 -23
83 -20 107 5 48 51 38 223 -14 261 -17 13 -70 9 -93 -8z"/>
<path d="M7652 1273 c-13 -5 -42 -55 -42 -73 0 -6 31 -10 80 -10 79 0 80 0 80
25 0 49 -63 80 -118 58z"/>
<path d="M2618 888 c-9 -29 -15 -54 -13 -56 2 -2 18 -2 37 0 l35 3 -15 53 c-8
28 -18 52 -21 52 -4 0 -14 -24 -23 -52z"/>
</g>
</svg>
