<?xml version="1.0" standalone="no"?>
<!DOCTYPE svg PUBLIC "-//W3C//DTD SVG 20010904//EN"
 "http://www.w3.org/TR/2001/REC-SVG-20010904/DTD/svg10.dtd">
<svg version="1.0" xmlns="http://www.w3.org/2000/svg"
 width="245.520000pt" height="60.000000pt" viewBox="0 0 245.520000 60.000000"
 preserveAspectRatio="xMidYMid meet">
<metadata>
Created by potrace 1.13, written by Peter Selinger 2001-2015
</metadata>
<g transform="translate(0.000000,60.000000) scale(0.024000,-0.024000)"
fill="#000000" stroke="none">
<path d="M0 1250 l0 -1250 5115 0 5115 0 0 1250 0 1250 -5115 0 -5115 0 0
-1250z m1597 472 c49 -26 87 -72 101 -124 12 -43 17 -40 -83 -40 -67 0 -65 0
-65 20 0 55 -114 79 -151 33 -11 -13 -19 -30 -19 -38 0 -24 48 -60 102 -78
163 -53 224 -117 216 -227 -7 -100 -73 -148 -213 -154 -139 -5 -234 51 -260
153 l-12 48 65 3 c77 4 92 -1 92 -27 0 -10 8 -29 18 -41 15 -19 29 -23 76 -24
64 -1 86 15 86 64 0 36 -22 53 -101 83 -36 14 -83 34 -105 45 -158 81 -142
262 29 318 60 20 172 12 224 -14z m2316 4 c51 -25 87 -87 87 -152 0 -70 -35
-133 -125 -229 -115 -122 -117 -115 24 -115 l120 0 0 -55 -1 -55 -214 0 c-118
0 -214 3 -215 8 -11 75 -7 81 96 190 166 173 200 238 155 295 -13 16 -31 27
-46 27 -32 0 -74 -42 -74 -74 0 -24 -2 -25 -75 -25 l-74 0 6 32 c22 115 104
177 228 173 43 -1 85 -9 108 -20z m-1705 -290 c62 -167 112 -306 112 -310 0
-3 -35 -6 -78 -6 l-77 0 -20 57 -20 58 -100 0 -100 0 -18 -57 -18 -58 -81 0
c-72 0 -79 2 -73 18 4 9 27 73 52 142 24 69 55 152 68 185 13 33 40 108 61
167 l39 108 70 0 71 0 112 -304z m417 108 c34 -105 65 -199 69 -210 6 -14 18
13 48 106 22 69 52 163 67 210 l27 85 100 3 99 3 0 -308 -1 -308 -74 0 -75 0
1 90 c0 50 3 144 6 210 7 139 11 144 -77 -115 l-63 -185 -49 -3 -50 -3 -26 73
c-14 40 -37 109 -52 153 -14 44 -29 87 -32 95 -3 8 -7 20 -9 25 -1 6 -9 28
-18 50 l-15 40 5 -65 c3 -36 6 -134 8 -217 l3 -153 -76 0 -76 0 2 307 c1 170
2 309 2 311 1 1 45 1 98 0 l97 -3 61 -191z m650 -56 c0 -159 4 -249 10 -249 5
-1 57 -3 115 -4 58 -2 112 -3 121 -4 12 -1 15 -13 15 -53 l-1 -53 -199 -3
c-115 -1 -202 1 -205 7 -5 7 -6 567 -2 604 1 4 34 7 74 5 l72 -3 0 -247z
m4915 -243 l0 -375 -83 0 -82 0 0 375 0 375 82 0 83 0 0 -375z m-3194 -20 l0
-356 -85 3 -86 3 0 345 c-1 190 0 348 2 353 3 4 41 7 87 7 l82 0 0 -355z
m3950 260 c18 -49 76 -206 128 -349 53 -142 96 -260 96 -262 0 -3 -41 -3 -92
-2 l-91 3 -20 62 -19 61 -118 0 -119 0 -18 -61 -19 -62 -92 -3 c-50 -1 -92 -1
-92 0 1 6 203 559 251 686 8 22 13 23 90 20 l82 -3 33 -90z m-3090 -17 l0 -63
42 -3 c43 -3 44 -4 44 -62 0 -55 0 -55 -44 -55 l-42 0 0 -139 c1 -151 3 -156
62 -156 l32 0 0 -59 0 -60 -45 -7 c-104 -15 -185 22 -205 94 -5 20 -10 103
-10 184 0 146 0 147 -22 146 -41 -2 -44 2 -43 55 0 51 0 52 33 55 l32 3 0 65
0 64 83 0 84 0 -1 -62z m-348 -85 c15 -10 36 -37 47 -59 18 -35 20 -59 20
-244 l0 -205 -82 -3 -83 -3 0 187 c0 212 -4 224 -70 224 -73 0 -75 -4 -75
-219 l0 -191 -82 0 -83 0 0 265 0 266 78 -3 c71 -3 77 -5 80 -25 4 -28 7 -28
35 -3 12 11 35 25 52 30 47 15 132 6 163 -17z m850 3 c84 -43 122 -118 127
-243 2 -62 22 -56 -187 -54 -76 0 -138 -2 -138 -5 0 -21 35 -73 56 -83 44 -20
106 -13 147 15 21 14 40 24 41 22 1 -1 16 -21 34 -44 l31 -41 -21 -23 c-40
-43 -106 -65 -193 -64 -93 0 -140 18 -195 75 -50 52 -70 113 -66 207 5 137 59
215 176 253 37 12 153 3 188 -15z m508 -58 l2 -77 -37 1 c-63 2 -77 -1 -98
-22 -20 -18 -22 -30 -22 -137 1 -65 0 -142 0 -170 l-1 -53 -80 0 -80 0 -1 145
c0 80 0 174 0 210 0 36 0 90 0 120 l1 55 75 0 c76 0 78 -1 78 -42 0 -14 8 -10
38 16 32 27 47 33 82 32 l42 -1 1 -77z m462 55 c58 -42 66 -77 68 -305 l2
-208 -83 0 -83 0 -1 187 c-1 211 -5 223 -71 223 -73 0 -74 -4 -74 -219 l0
-191 -83 0 -83 0 0 265 0 265 78 0 c72 0 78 -2 79 -21 3 -32 11 -35 37 -10 13
12 36 26 52 31 46 15 131 6 162 -17z m473 12 c24 -9 54 -26 67 -38 50 -46 55
-70 58 -259 1 -101 7 -185 13 -197 6 -11 11 -22 11 -25 0 -3 -38 -6 -84 -6
-75 0 -85 2 -91 19 -6 18 -8 18 -51 -6 -123 -69 -280 29 -259 161 16 96 95
143 243 145 l52 1 0 35 c0 38 -31 75 -58 70 -9 -2 -23 -4 -29 -4 -7 -1 -19
-14 -27 -29 -14 -27 -17 -28 -93 -27 -77 1 -78 1 -74 25 16 114 183 184 322
135z m-6164 -455 c20 -65 40 -117 43 -114 3 3 21 56 40 117 l36 112 57 3 57 3
0 -181 0 -181 -42 3 -43 3 3 113 c2 61 1 112 -1 112 -3 0 -21 -52 -41 -115
-36 -111 -38 -115 -65 -115 -25 0 -31 6 -48 53 -11 28 -28 80 -38 114 -10 34
-21 60 -24 58 -3 -2 -4 -36 -1 -77 3 -40 4 -90 2 -110 -3 -37 -4 -38 -45 -38
l-42 0 2 158 c0 86 2 167 2 180 1 20 6 22 56 22 l55 0 37 -120z m533 87 l0
-33 -67 -1 c-38 -1 -74 -2 -80 -2 -8 -1 -13 -15 -13 -36 l0 -35 70 0 70 0 0
-30 c0 -21 -5 -30 -17 -31 -10 -1 -36 -3 -58 -4 -22 -1 -46 -3 -53 -4 -9 -1
-12 -14 -10 -43 l3 -43 78 1 77 1 0 -33 0 -34 -120 0 c-89 0 -120 3 -121 13 0
6 -1 87 -2 180 l-2 167 123 0 122 0 0 -33z m317 1 c4 -30 2 -31 -62 -32 l-40
-1 -3 -147 -3 -148 -43 0 -43 0 0 133 c-1 72 -2 140 -2 149 -1 14 -9 16 -51
12 l-50 -4 0 35 0 36 147 -3 146 -3 4 -27z m259 -148 c35 -96 64 -176 64 -178
0 -2 -21 -2 -47 0 -43 3 -48 6 -55 33 -7 29 -9 30 -65 30 -55 0 -58 -1 -69
-30 -9 -27 -16 -30 -57 -33 l-46 -3 23 68 c28 78 83 234 97 270 8 21 14 24 50
21 l41 -3 64 -175z m285 170 c43 -12 66 -36 79 -79 l9 -31 -44 0 c-34 0 -44 4
-48 20 -3 11 -16 24 -29 29 -54 20 -90 -26 -90 -115 0 -83 32 -117 100 -106
17 3 22 11 22 33 0 26 -4 29 -30 29 -27 0 -30 3 -30 30 l0 30 74 0 74 0 0 -69
c0 -77 -8 -90 -67 -110 -129 -43 -231 32 -231 169 0 133 88 204 211 170z m379
-24 l0 -34 -57 0 c-102 0 -99 2 -101 -37 l-3 -35 71 0 70 0 0 -30 c0 -32 3
-31 -90 -34 l-45 -1 0 -45 0 -44 78 0 77 0 0 -33 0 -34 -122 3 -121 3 -1 177
-1 178 123 0 122 0 0 -34z m138 4 c9 -17 38 -67 64 -112 l46 -82 -1 112 -2
113 44 -3 44 -3 0 -175 1 -175 -45 -3 -44 -2 -60 110 -60 111 -3 -110 -3 -111
-42 0 -42 0 0 180 0 180 43 0 c37 0 45 -4 60 -30z m-2112 -97 c-1 -40 4 -36
-116 -79 -8 -3 13 -15 50 -28 55 -18 65 -26 67 -46 4 -50 -2 -51 -109 -6 -102
42 -103 43 -103 76 0 34 1 34 105 76 58 24 105 43 106 44 0 0 0 -17 0 -37z
m2473 -8 l102 -40 -3 -35 c-3 -34 -5 -36 -105 -77 -57 -23 -103 -38 -104 -32
-6 60 -5 63 52 82 29 10 58 22 62 26 4 4 -20 16 -53 26 -33 10 -60 21 -61 24
-4 31 -3 71 2 69 3 -2 52 -21 108 -43z"/>
<path d="M1996 1469 c-15 -51 -30 -99 -33 -106 -4 -10 10 -13 62 -13 60 0 67
2 62 18 -3 9 -14 46 -25 82 -38 123 -35 123 -66 19z"/>
<path d="M8826 1360 c-15 -40 -66 -207 -66 -217 0 -9 21 -13 70 -13 49 0 70 4
70 13 -1 30 -69 230 -74 217z"/>
<path d="M6194 1266 c-16 -18 -34 -53 -34 -65 0 -16 157 -15 163 2 6 17 -19
63 -38 71 -28 10 -79 6 -91 -8z"/>
<path d="M7672 1094 c-31 -12 -42 -31 -42 -68 0 -30 18 -46 55 -46 50 0 75 24
75 74 0 41 -2 44 -30 48 -16 2 -42 -1 -58 -8z"/>
<path d="M2618 888 c-9 -29 -15 -54 -13 -56 2 -2 18 -2 37 0 l35 3 -15 53 c-8
28 -18 52 -21 52 -4 0 -14 -24 -23 -52z"/>
</g>
</svg>
